<?xml version="1.0" encoding="utf-8"?>
<!-- Generator: Adobe Illustrator 27.5.0, SVG Export Plug-In . SVG Version: 6.00 Build 0)  -->
<svg version="1.1" xmlns="http://www.w3.org/2000/svg" xmlns:xlink="http://www.w3.org/1999/xlink" x="0px" y="0px"
	 viewBox="0 0 500 500" style="enable-background:new 0 0 500 500;" xml:space="preserve">
<g id="Shadow">
	<g>
		<path style="fill:#C6FF00;" d="M411.985,360.647c0,0,56.324-65.285,41.856-148.785c-14.468-83.501-89.094-127.217-139.152-122.273
			c-50.058,4.944-99.873,54.022-148.806,60.075c-48.933,6.053-122.64,49.221-107.741,131.336
			c14.899,82.116,60.194,90.124,133.499,93.169C264.947,377.213,368.683,414.789,411.985,360.647z"/>
		<path style="opacity:0.7;fill:#FFFFFF;" d="M411.985,360.647c0,0,56.324-65.285,41.856-148.785
			c-14.468-83.501-89.094-127.217-139.152-122.273c-50.058,4.944-99.873,54.022-148.806,60.075
			c-48.933,6.053-122.64,49.221-107.741,131.336c14.899,82.116,60.194,90.124,133.499,93.169
			C264.947,377.213,368.683,414.789,411.985,360.647z"/>
	</g>
	<g>
		<ellipse style="fill:#C6FF00;" cx="318.883" cy="410.54" rx="51.403" ry="16.017"/>
		<ellipse style="opacity:0.5;fill:#FFFFFF;" cx="318.883" cy="410.54" rx="51.403" ry="16.017"/>
	</g>
</g>
<g id="Store">
	<g>
		
			<rect x="98.96" y="158.359" style="fill:#263238;stroke:#263238;stroke-linecap:round;stroke-linejoin:round;stroke-miterlimit:10;" width="217.78" height="234.516"/>
		<g>
			<defs>
				<rect id="XMLID_1_" x="107.029" y="171.037" width="186.721" height="215.536"/>
			</defs>
			<use xlink:href="#XMLID_1_"  style="overflow:visible;fill:#FFFFFF;"/>
			<clipPath id="XMLID_00000098922222196707572170000008206391766131344280_">
				<use xlink:href="#XMLID_1_"  style="overflow:visible;"/>
			</clipPath>
			
				<rect id="XMLID_2_" x="107.029" y="171.037" style="clip-path:url(#XMLID_00000098922222196707572170000008206391766131344280_);fill:#263238;" width="186.721" height="215.536"/>
			
				<rect id="XMLID_3_" x="107.029" y="171.037" style="opacity:0.6;clip-path:url(#XMLID_00000098922222196707572170000008206391766131344280_);fill:#FFFFFF;" width="186.721" height="215.536"/>
			
				<rect x="100.113" y="357.758" style="clip-path:url(#XMLID_00000098922222196707572170000008206391766131344280_);fill:#263238;stroke:#FFFFFF;stroke-linecap:round;stroke-linejoin:round;stroke-miterlimit:10;" width="205.162" height="21.162"/>
			<g style="clip-path:url(#XMLID_00000098922222196707572170000008206391766131344280_);">
				<path style="fill:#263238;" d="M221.761,288.18c1.133,0.495,3.906,0.433,3.908,0.433c0.029-0.001-0.596-1.815-0.648-1.925
					c-0.608-1.272-2.532-3.373-4.097-3.162c-1.127,0.152-1.754,1.281-1.5,2.342C219.683,286.953,220.796,287.758,221.761,288.18z"/>
				<path style="fill:#263238;" d="M258.075,278.744c-1.57-0.169-3.436,1.983-4.01,3.271c-0.049,0.112-0.625,1.942-0.596,1.942
					c0,0,0.027,0,0.033,0c-0.297,0.337-0.612,0.703-0.948,1.109c-0.614,0.755-1.301,1.613-1.986,2.597
					c-0.687,0.982-1.406,2.068-2.059,3.281c-0.657,1.215-1.286,2.526-1.759,3.96c-0.005,0.016-0.009,0.034-0.014,0.05
					c0.008-0.463-0.012-1.757-0.025-1.856c-0.181-1.398-1.354-3.994-2.907-4.282c-1.119-0.207-2.066,0.67-2.156,1.758
					c-0.091,1.111,0.715,2.223,1.5,2.925c0.886,0.791,3.345,1.558,3.541,1.618c-0.438,1.37-0.777,2.812-1.039,4.29
					c-0.151,0.845-0.276,1.701-0.391,2.56c-0.006-0.4-0.014-0.758-0.021-0.808c-0.181-1.398-1.354-3.994-2.907-4.281
					c-1.119-0.207-2.066,0.67-2.156,1.758c-0.091,1.111,0.715,2.223,1.5,2.925c0.797,0.712,2.881,1.408,3.435,1.584
					c-0.041,0.33-0.085,0.659-0.124,0.99c-0.189,1.585-0.371,3.168-0.598,4.714c-0.079,0.545-0.178,1.079-0.274,1.614
					c-0.006-0.355-0.013-0.655-0.019-0.7c-0.181-1.399-1.353-3.995-2.907-4.281c-1.119-0.207-2.066,0.67-2.156,1.758
					c-0.091,1.111,0.715,2.223,1.5,2.925c0.761,0.68,2.678,1.339,3.335,1.552c-0.115,0.544-0.23,1.09-0.366,1.612
					c-0.101,0.355-0.174,0.703-0.295,1.053c-0.113,0.35-0.225,0.696-0.335,1.038c-0.237,0.652-0.478,1.326-0.725,1.957
					c-0.169,0.44-0.338,0.855-0.507,1.275c0.085-0.542,0.23-1.605,0.232-1.696c0.022-0.937-0.311-2.46-0.973-3.53
					c0.004-0.138-0.004-0.276-0.026-0.413c-0.173-1.078-1.186-1.878-2.285-1.586c-1.526,0.406-2.494,3.085-2.566,4.494
					c-0.004,0.083,0.05,0.99,0.094,1.561c-0.077-0.332-0.148-0.655-0.231-0.996c-0.16-0.675-0.34-1.344-0.53-2.064
					c-0.104-0.345-0.21-0.693-0.316-1.044c-0.098-0.351-0.246-0.709-0.369-1.068c-0.302-0.825-0.648-1.647-1.015-2.467
					c0.591-0.142,2.681-0.674,3.521-1.319c0.836-0.641,1.722-1.69,1.714-2.805c-0.008-1.092-0.887-2.036-2.019-1.913
					c-1.57,0.171-2.933,2.672-3.218,4.053c-0.018,0.086-0.111,1.1-0.151,1.658c-0.225-0.491-0.446-0.983-0.689-1.472
					c-0.702-1.413-1.456-2.822-2.202-4.231c-0.229-0.431-0.451-0.864-0.676-1.296c0.211-0.048,2.71-0.628,3.65-1.349
					c0.836-0.641,1.722-1.69,1.714-2.805c-0.008-1.092-0.887-2.036-2.018-1.914c-1.57,0.171-2.933,2.672-3.218,4.053
					c-0.021,0.104-0.153,1.563-0.169,1.936c-0.494-0.952-0.979-1.905-1.417-2.864c-0.607-1.323-1.13-2.654-1.542-3.981
					c0.098-0.022,2.709-0.616,3.672-1.354c0.836-0.641,1.722-1.69,1.714-2.805c-0.008-1.092-0.887-2.036-2.019-1.913
					c-1.57,0.17-2.933,2.672-3.218,4.053c-0.022,0.109-0.163,1.679-0.169,1.965c-0.024-0.079-0.058-0.158-0.081-0.237
					c-0.421-1.423-0.65-2.853-0.799-4.203c-0.088-0.784-0.128-1.539-0.151-2.274c0.498-0.061,2.768-0.363,3.708-0.932
					c0.901-0.546,1.897-1.491,2.012-2.6c0.112-1.086-0.658-2.122-1.796-2.124c-1.579-0.003-3.208,2.333-3.643,3.675
					c-0.024,0.073-0.182,0.841-0.29,1.402c-0.005-0.332-0.016-0.674-0.015-0.992c0.002-1.194,0.078-2.288,0.152-3.256
					c0.047-0.55,0.1-1.047,0.155-1.51c0.457-0.314,2.284-1.604,2.846-2.525c0.548-0.899,0.997-2.198,0.587-3.234
					c-0.401-1.015-1.562-1.579-2.573-1.057c-1.403,0.725-1.772,3.549-1.54,4.941c0.02,0.12,0.55,1.964,0.574,1.948
					c0,0,0.022-0.015,0.028-0.019c-0.062,0.445-0.123,0.924-0.179,1.447c-0.096,0.968-0.196,2.063-0.224,3.262
					c-0.031,1.198-0.032,2.501,0.092,3.872c0.122,1.375,0.321,2.816,0.717,4.274c0.005,0.016,0.011,0.033,0.016,0.049
					c-0.248-0.39-0.98-1.458-1.045-1.534c-0.923-1.066-3.333-2.585-4.786-1.968c-1.047,0.445-1.354,1.699-0.828,2.656
					c0.537,0.977,1.823,1.46,2.865,1.612c1.176,0.171,3.65-0.546,3.846-0.604c0.391,1.385,0.904,2.774,1.501,4.152
					c0.34,0.788,0.708,1.571,1.086,2.351c-0.226-0.331-0.43-0.624-0.463-0.662c-0.923-1.067-3.333-2.585-4.786-1.968
					c-1.047,0.445-1.354,1.699-0.828,2.655c0.537,0.977,1.823,1.46,2.865,1.612c1.058,0.154,3.179-0.415,3.739-0.573
					c0.148,0.298,0.293,0.597,0.442,0.894c0.716,1.427,1.438,2.847,2.102,4.262c0.235,0.499,0.447,0.998,0.662,1.497
					c-0.201-0.293-0.372-0.539-0.402-0.574c-0.923-1.066-3.333-2.585-4.786-1.967c-1.047,0.445-1.354,1.698-0.828,2.655
					c0.537,0.977,1.823,1.46,2.865,1.612c1.009,0.147,2.972-0.361,3.638-0.546c0.204,0.517,0.41,1.036,0.584,1.547
					c0.111,0.352,0.243,0.682,0.335,1.041c0.099,0.354,0.197,0.704,0.293,1.051c0.162,0.675,0.333,1.37,0.474,2.032
					c0.102,0.46,0.19,0.9,0.281,1.343c-0.227-0.499-0.694-1.466-0.742-1.543c-0.75-1.194-2.902-3.06-4.433-2.67
					c-1.103,0.281-1.596,1.474-1.221,2.499c0.383,1.047,1.58,1.72,2.588,2.028c1.109,0.339,3.565,0.029,3.871-0.012
					c0.147,0.734,0.283,1.449,0.401,2.126c0.414,2.345,0.669,4.314,0.828,5.693c0.028,0.245,0.052,0.464,0.074,0.67h-4.753
					l1.736,33.865h8.099l1.736-33.865h-4.428c0.033-0.068,0.064-0.132,0.098-0.203c0.608-1.266,1.45-3.085,2.36-5.311
					c0.289-0.703,0.584-1.459,0.88-2.239c0.297,0.062,2.728,0.556,3.861,0.3c1.027-0.232,2.272-0.813,2.732-1.829
					c0.45-0.995,0.047-2.221-1.031-2.583c-1.497-0.503-3.782,1.197-4.62,2.332c-0.049,0.067-0.504,0.853-0.783,1.354
					c0.119-0.319,0.238-0.628,0.357-0.958c0.239-0.651,0.458-1.308,0.697-2.014c0.103-0.345,0.208-0.693,0.313-1.045
					c0.112-0.347,0.186-0.727,0.282-1.094c0.203-0.855,0.368-1.731,0.514-2.618c0.571,0.208,2.608,0.917,3.664,0.843
					c1.051-0.074,2.369-0.46,2.977-1.394c0.596-0.915,0.383-2.188-0.628-2.71c-1.404-0.724-3.92,0.611-4.92,1.605
					c-0.062,0.062-0.699,0.856-1.041,1.3c0.084-0.534,0.17-1.066,0.237-1.608c0.194-1.566,0.342-3.157,0.497-4.744
					c0.047-0.486,0.1-0.97,0.151-1.454c0.202,0.076,2.606,0.971,3.788,0.888c1.051-0.074,2.369-0.46,2.977-1.394
					c0.596-0.915,0.383-2.188-0.628-2.71c-1.404-0.724-3.92,0.611-4.92,1.605c-0.075,0.075-0.99,1.219-1.209,1.522
					c0.113-1.067,0.235-2.129,0.398-3.171c0.223-1.438,0.521-2.837,0.91-4.171c0.094,0.036,2.599,0.981,3.81,0.896
					c1.051-0.074,2.369-0.46,2.977-1.394c0.596-0.915,0.383-2.188-0.628-2.71c-1.404-0.724-3.92,0.611-4.92,1.605
					c-0.079,0.078-1.062,1.31-1.225,1.546c0.023-0.079,0.039-0.164,0.063-0.243c0.434-1.418,1.032-2.738,1.652-3.947
					c0.359-0.703,0.742-1.354,1.128-1.98c0.449,0.224,2.509,1.224,3.607,1.268c1.053,0.042,2.405-0.197,3.112-1.059
					c0.693-0.844,0.621-2.133-0.327-2.762c-1.316-0.874-3.963,0.176-5.066,1.055c-0.06,0.048-0.616,0.601-1.015,1.01
					c0.179-0.28,0.358-0.572,0.535-0.836c0.661-0.995,1.327-1.865,1.923-2.631c0.343-0.433,0.661-0.818,0.963-1.174
					c0.555-0.01,2.789-0.078,3.766-0.536c0.953-0.448,2.044-1.283,2.274-2.374C259.863,279.977,259.206,278.866,258.075,278.744z
					 M240.688,320.933c-0.949,2.184-1.822,3.967-2.45,5.205c-0.127,0.249-0.24,0.47-0.346,0.674h-0.105
					c-0.031-0.241-0.065-0.506-0.106-0.802c-0.191-1.391-0.492-3.373-0.961-5.732c-0.146-0.746-0.318-1.539-0.501-2.353
					c0.184-0.073,1.232-0.497,2.16-1.016c0.808,0.875,2.88,1.9,3.148,2.03C241.244,319.632,240.963,320.303,240.688,320.933z"/>
				<path style="fill:#263238;" d="M249.8,288.79c0.024,0.015,0.504-1.842,0.521-1.963c0.195-1.397-0.251-4.21-1.673-4.897
					c-1.024-0.495-2.17,0.1-2.543,1.126c-0.381,1.048,0.102,2.333,0.675,3.218C247.452,287.312,249.799,288.789,249.8,288.79z"/>
			</g>
			<g style="clip-path:url(#XMLID_00000098922222196707572170000008206391766131344280_);">
				<path style="fill:#263238;" d="M90.158,255.544c1.643,0.718,5.664,0.627,5.667,0.627c0.042-0.001-0.864-2.632-0.94-2.791
					c-0.882-1.845-3.671-4.892-5.941-4.585c-1.635,0.221-2.544,1.857-2.175,3.397C87.145,253.765,88.758,254.933,90.158,255.544z"/>
				<path style="fill:#263238;" d="M142.819,241.861c-2.277-0.245-4.983,2.875-5.815,4.744c-0.072,0.162-0.906,2.816-0.864,2.816
					c0,0,0.039-0.001,0.049-0.001c-0.431,0.489-0.887,1.019-1.374,1.608c-0.891,1.094-1.887,2.339-2.88,3.767
					c-0.996,1.424-2.038,2.999-2.986,4.758c-0.953,1.761-1.865,3.662-2.551,5.743c-0.008,0.023-0.013,0.049-0.021,0.073
					c0.012-0.671-0.018-2.548-0.037-2.692c-0.263-2.028-1.963-5.793-4.215-6.209c-1.623-0.3-2.997,0.971-3.126,2.549
					c-0.132,1.611,1.037,3.224,2.176,4.242c1.285,1.147,4.851,2.259,5.135,2.346c-0.636,1.987-1.126,4.079-1.507,6.222
					c-0.219,1.225-0.401,2.466-0.568,3.712c-0.008-0.58-0.021-1.099-0.03-1.172c-0.263-2.028-1.963-5.793-4.215-6.209
					c-1.623-0.3-2.997,0.971-3.126,2.549c-0.132,1.612,1.036,3.224,2.176,4.242c1.156,1.033,4.178,2.041,4.981,2.297
					c-0.059,0.479-0.123,0.956-0.18,1.435c-0.275,2.298-0.539,4.594-0.867,6.836c-0.115,0.791-0.258,1.565-0.397,2.34
					c-0.008-0.516-0.019-0.95-0.028-1.016c-0.263-2.028-1.963-5.793-4.215-6.209c-1.623-0.3-2.997,0.971-3.126,2.549
					c-0.132,1.611,1.037,3.224,2.176,4.242c1.103,0.985,3.884,1.941,4.837,2.251c-0.167,0.789-0.333,1.581-0.531,2.338
					c-0.147,0.514-0.252,1.019-0.428,1.528c-0.164,0.507-0.326,1.009-0.486,1.506c-0.344,0.946-0.693,1.923-1.052,2.838
					c-0.245,0.638-0.49,1.241-0.735,1.849c0.124-0.785,0.334-2.328,0.337-2.459c0.032-1.359-0.451-3.567-1.411-5.12
					c0.006-0.201-0.006-0.401-0.038-0.599c-0.251-1.563-1.72-2.724-3.314-2.299c-2.213,0.589-3.617,4.474-3.722,6.517
					c-0.006,0.121,0.073,1.435,0.136,2.264c-0.111-0.482-0.214-0.95-0.335-1.444c-0.232-0.979-0.492-1.949-0.769-2.994
					c-0.151-0.5-0.304-1.004-0.458-1.514c-0.142-0.509-0.357-1.028-0.535-1.548c-0.438-1.197-0.94-2.388-1.472-3.578
					c0.857-0.206,3.888-0.978,5.106-1.912c1.212-0.93,2.497-2.451,2.486-4.068c-0.011-1.583-1.287-2.953-2.927-2.775
					c-2.277,0.247-4.253,3.875-4.666,5.878c-0.026,0.125-0.161,1.595-0.219,2.405c-0.326-0.713-0.647-1.425-0.999-2.135
					c-1.018-2.05-2.112-4.092-3.194-6.135c-0.332-0.626-0.655-1.253-0.981-1.879c0.306-0.07,3.929-0.91,5.293-1.957
					c1.212-0.93,2.497-2.451,2.486-4.068c-0.011-1.583-1.287-2.953-2.927-2.775c-2.277,0.247-4.253,3.875-4.667,5.877
					c-0.031,0.151-0.222,2.267-0.244,2.808c-0.717-1.38-1.419-2.763-2.055-4.154c-0.881-1.918-1.639-3.849-2.236-5.773
					c0.142-0.032,3.928-0.893,5.325-1.964c1.212-0.93,2.497-2.451,2.486-4.068c-0.011-1.583-1.287-2.953-2.927-2.775
					c-2.277,0.247-4.253,3.875-4.666,5.877c-0.033,0.157-0.237,2.434-0.244,2.85c-0.035-0.115-0.084-0.229-0.118-0.344
					c-0.61-2.063-0.943-4.138-1.159-6.096c-0.128-1.137-0.186-2.232-0.219-3.298c0.722-0.088,4.014-0.526,5.378-1.352
					c1.307-0.791,2.751-2.162,2.918-3.77c0.162-1.575-0.955-3.077-2.605-3.08c-2.29-0.004-4.652,3.384-5.283,5.329
					c-0.034,0.106-0.264,1.22-0.42,2.034c-0.007-0.481-0.024-0.978-0.022-1.439c0.003-1.732,0.113-3.318,0.221-4.721
					c0.068-0.798,0.146-1.518,0.225-2.19c0.663-0.456,3.312-2.326,4.127-3.662c0.795-1.304,1.445-3.187,0.852-4.691
					c-0.582-1.472-2.265-2.29-3.731-1.533c-2.035,1.052-2.57,5.147-2.233,7.165c0.029,0.174,0.798,2.848,0.832,2.825
					c0,0,0.032-0.022,0.04-0.027c-0.09,0.646-0.178,1.34-0.259,2.099c-0.139,1.404-0.284,2.992-0.324,4.731
					c-0.045,1.737-0.046,3.626,0.134,5.616c0.177,1.995,0.465,4.084,1.04,6.198c0.007,0.024,0.016,0.048,0.023,0.072
					c-0.36-0.566-1.421-2.115-1.515-2.225c-1.338-1.547-4.833-3.749-6.941-2.854c-1.519,0.645-1.964,2.463-1.201,3.851
					c0.779,1.417,2.643,2.117,4.155,2.338c1.705,0.249,5.293-0.792,5.578-0.876c0.566,2.008,1.311,4.023,2.176,6.021
					c0.493,1.143,1.026,2.278,1.575,3.41c-0.327-0.479-0.624-0.906-0.671-0.961c-1.338-1.547-4.833-3.749-6.941-2.853
					c-1.519,0.645-1.964,2.463-1.201,3.851c0.779,1.417,2.643,2.117,4.155,2.338c1.534,0.224,4.61-0.602,5.422-0.831
					c0.215,0.432,0.425,0.866,0.641,1.297c1.039,2.069,2.085,4.129,3.048,6.18c0.34,0.723,0.648,1.447,0.96,2.171
					c-0.291-0.426-0.54-0.781-0.583-0.832c-1.338-1.547-4.833-3.749-6.941-2.853c-1.519,0.645-1.964,2.463-1.201,3.851
					c0.779,1.417,2.643,2.118,4.155,2.338c1.464,0.213,4.31-0.523,5.276-0.791c0.296,0.751,0.594,1.502,0.847,2.243
					c0.161,0.51,0.352,0.989,0.486,1.51c0.143,0.513,0.285,1.021,0.425,1.524c0.235,0.979,0.483,1.987,0.688,2.947
					c0.148,0.667,0.276,1.305,0.407,1.948c-0.33-0.723-1.006-2.126-1.076-2.237c-1.088-1.732-4.209-4.437-6.429-3.872
					c-1.599,0.408-2.314,2.137-1.77,3.624c0.555,1.518,2.292,2.493,3.753,2.94c1.608,0.492,5.169,0.042,5.614-0.017
					c0.213,1.064,0.411,2.101,0.581,3.082c0.6,3.401,0.97,6.257,1.201,8.255c0.041,0.355,0.076,0.672,0.108,0.971h-6.893
					l2.517,49.11h11.745l2.517-49.11h-6.422c0.048-0.099,0.093-0.191,0.143-0.295c0.881-1.836,2.103-4.474,3.423-7.702
					c0.419-1.019,0.847-2.116,1.276-3.247c0.431,0.09,3.956,0.806,5.599,0.435c1.49-0.337,3.294-1.18,3.961-2.652
					c0.653-1.442,0.069-3.221-1.496-3.746c-2.171-0.729-5.485,1.736-6.699,3.382c-0.072,0.097-0.731,1.237-1.136,1.963
					c0.173-0.463,0.346-0.91,0.518-1.389c0.347-0.944,0.664-1.897,1.01-2.921c0.15-0.5,0.301-1.006,0.453-1.516
					c0.162-0.503,0.27-1.055,0.408-1.586c0.295-1.24,0.534-2.51,0.746-3.796c0.828,0.301,3.783,1.329,5.313,1.222
					c1.524-0.107,3.435-0.667,4.317-2.022c0.864-1.327,0.556-3.173-0.911-3.93c-2.036-1.05-5.685,0.886-7.134,2.328
					c-0.09,0.09-1.014,1.242-1.509,1.885c0.122-0.774,0.247-1.545,0.344-2.332c0.282-2.271,0.497-4.578,0.721-6.879
					c0.068-0.705,0.145-1.406,0.219-2.109c0.293,0.111,3.779,1.408,5.494,1.288c1.524-0.107,3.435-0.667,4.318-2.022
					c0.864-1.327,0.556-3.173-0.911-3.929c-2.035-1.05-5.685,0.885-7.134,2.328c-0.109,0.109-1.436,1.768-1.753,2.207
					c0.164-1.547,0.341-3.087,0.577-4.598c0.323-2.086,0.756-4.115,1.32-6.049c0.137,0.052,3.769,1.423,5.525,1.299
					c1.524-0.107,3.435-0.667,4.318-2.022c0.864-1.327,0.556-3.173-0.911-3.929c-2.036-1.05-5.685,0.885-7.134,2.328
					c-0.114,0.113-1.541,1.9-1.776,2.242c0.034-0.115,0.056-0.238,0.091-0.352c0.629-2.057,1.496-3.971,2.396-5.723
					c0.521-1.019,1.076-1.964,1.637-2.872c0.65,0.325,3.639,1.776,5.231,1.839c1.526,0.061,3.488-0.286,4.513-1.535
					c1.005-1.224,0.901-3.093-0.474-4.006c-1.908-1.267-5.748,0.256-7.347,1.53c-0.087,0.069-0.893,0.872-1.472,1.465
					c0.259-0.406,0.519-0.829,0.775-1.213c0.958-1.443,1.924-2.705,2.789-3.816c0.497-0.628,0.959-1.186,1.396-1.703
					c0.804-0.014,4.045-0.113,5.462-0.778c1.383-0.649,2.964-1.861,3.298-3.443C145.413,243.648,144.46,242.037,142.819,241.861z
					 M117.606,303.041c-1.376,3.167-2.643,5.753-3.553,7.548c-0.184,0.362-0.349,0.682-0.502,0.977h-0.152
					c-0.045-0.35-0.095-0.733-0.154-1.164c-0.278-2.017-0.714-4.891-1.394-8.312c-0.212-1.081-0.461-2.233-0.727-3.412
					c0.268-0.106,1.786-0.721,3.132-1.473c1.172,1.269,4.176,2.755,4.565,2.944C118.412,301.155,118.005,302.129,117.606,303.041z"
					/>
				<path style="fill:#263238;" d="M130.82,256.429c0.035,0.022,0.731-2.672,0.756-2.847c0.282-2.026-0.364-6.105-2.426-7.102
					c-1.486-0.718-3.147,0.146-3.688,1.633c-0.553,1.519,0.148,3.384,0.978,4.666C127.414,254.285,130.818,256.427,130.82,256.429z"
					/>
			</g>
			<g style="clip-path:url(#XMLID_00000098922222196707572170000008206391766131344280_);">
				<g>
					<path style="fill:#FFFFFF;stroke:#263238;stroke-linecap:round;stroke-linejoin:round;stroke-miterlimit:10;" d="
						M185.467,291.245v71.098c0,2.939,8.371,5.321,18.696,5.321s18.696-2.382,18.696-5.321v-71.098H185.467z"/>
					
						<ellipse style="fill:#FFFFFF;stroke:#263238;stroke-linecap:round;stroke-linejoin:round;stroke-miterlimit:10;" cx="204.163" cy="291.245" rx="18.696" ry="2.456"/>
				</g>
				<g>
					<path style="fill:#C6FF00;stroke:#263238;stroke-linecap:round;stroke-linejoin:round;stroke-miterlimit:10;" d="
						M190.51,274.016c0,0,8.553-23.35,13.576-23.35c5.023,0,13.847,23.079,13.847,23.079l-1.493,0.136
						c0,0-8.688-20.228-11.268-21.45c-2.579-1.222-7.331,6.109-13.168,21.585H190.51z"/>
					<path style="fill:#C6FF00;stroke:#263238;stroke-linecap:round;stroke-linejoin:round;stroke-miterlimit:10;" d="
						M217.648,291.664h-26.853c-1.282,0-2.321-1.039-2.321-2.321V275.56c0-1.602,1.299-2.901,2.901-2.901h25.693
						c1.603,0,2.902,1.299,2.902,2.901v13.783C219.969,290.625,218.93,291.664,217.648,291.664z"/>
					
						<line style="fill:none;stroke:#263238;stroke-linecap:round;stroke-linejoin:round;stroke-miterlimit:10;" x1="188.745" y1="282.84" x2="217.254" y2="282.84"/>
					<path style="fill:#C6FF00;stroke:#263238;stroke-linecap:round;stroke-linejoin:round;stroke-miterlimit:10;" d="
						M218.476,273.337c0,0-0.679,0.815-0.679,3.122c0,2.308-0.814,14.526-0.679,15.069c0.136,0.543,0.95,0.136,0.95,0.136"/>
					
						<rect x="201.913" y="280.125" style="fill:#FFFFFF;stroke:#263238;stroke-linecap:round;stroke-linejoin:round;stroke-miterlimit:10;" width="2.172" height="4.887"/>
				</g>
			</g>
			<g style="clip-path:url(#XMLID_00000098922222196707572170000008206391766131344280_);">
				<path style="fill:#263238;stroke:#263238;stroke-linecap:round;stroke-linejoin:round;stroke-miterlimit:10;" d="
					M146.792,255.273c0,0-3.122,7.059-4.073,17.648c-0.95,10.589,3.801,29.459,5.973,35.84c2.172,6.381,4.344,15.069,4.752,16.427
					c0.407,1.358,2.444,11.404,3.665,17.241c1.222,5.838,1.222,14.797,0.271,17.105c-0.95,2.308-6.245,6.245-6.788,6.924
					s0.815,1.086,3.53,0.815c2.715-0.272,5.294-2.579,6.924-3.258c1.629-0.679,2.715-2.172,2.715-4.344
					c0-2.172-1.086-4.073,0-11.132c1.086-7.059,1.086-20.771,1.086-20.771s2.851,10.725,4.48,19.413
					c1.629,8.689,3.937,18.599,4.344,20.771c0.407,2.172,2.172,3.122,3.665,3.122c1.493,0,3.258-0.95,3.258-3.53
					c0-2.579-5.023-8.145-5.838-12.354c-0.815-4.208,1.629-17.92,2.172-24.844c0.543-6.924-1.358-15.069-1.901-21.314
					c-0.543-6.245,1.104-8.982,4.209-22.128c2.308-9.775,1.357-21.585-0.679-28.373c-2.036-6.788-2.444-6.924-2.444-6.924
					S163.083,260.025,146.792,255.273z"/>
				<g>
					<path style="fill:#FFFFFF;stroke:#263238;stroke-linecap:round;stroke-linejoin:round;stroke-miterlimit:10;" d="
						M146.656,213.46c0,0-5.023,1.222-6.788,1.629c-1.765,0.407-3.122,1.493-2.851,4.073c0.271,2.579-0.543,16.698-0.814,20.364
						s5.294,4.073,6.788,1.358c1.493-2.715,2.715-6.652,2.715-6.652s0.679,6.788,0.679,10.317c0,3.53-0.815,8.96-0.272,10.861
						c0.543,1.901,11.539,3.53,19.413,3.665s12.354-4.344,12.354-6.245s0.271-10.725,0.814-13.44
						c0.543-2.715,0.679-6.652,0.679-6.652s1.222,11.675,2.172,13.847c0.95,2.172,5.566,1.629,7.059-1.086
						c1.493-2.715-0.543-10.182-0.815-15.205c-0.271-5.023-0.543-6.516-0.543-10.046c0-3.53,1.901-5.023-0.679-6.109
						c-2.579-1.086-7.874-1.357-7.874-1.357s-13.168,0.679-19.006,0.136C153.851,212.374,146.656,213.46,146.656,213.46z"/>
					<g>
						<path style="fill:none;stroke:#263238;stroke-linecap:round;stroke-linejoin:round;stroke-miterlimit:10;" d="M162.546,229.77
							c0,0-0.699,16.085-1.399,21.68c-0.699,5.595,2.098,7.343,2.098,7.343"/>
						<polyline style="fill:none;stroke:#263238;stroke-linecap:round;stroke-linejoin:round;stroke-miterlimit:10;" points="
							148.909,232.917 153.455,236.064 159.05,233.267 						"/>
						<polyline style="fill:none;stroke:#263238;stroke-linecap:round;stroke-linejoin:round;stroke-miterlimit:10;" points="
							165.344,232.567 170.939,235.015 177.932,232.917 						"/>
					</g>
				</g>
				<polygon style="fill:#FFFFFF;stroke:#263238;stroke-linecap:round;stroke-linejoin:round;stroke-miterlimit:10;" points="
					140.683,257.581 144.891,262.74 148.285,259.21 145.842,252.694 				"/>
				<path style="fill:#FFFFFF;stroke:#263238;stroke-linecap:round;stroke-linejoin:round;stroke-miterlimit:10;" d="
					M136.746,234.367c0,0-2.851,7.602-2.579,11.811s3.665,10.046,4.073,10.453c0.407,0.407,7.195-4.48,7.331-5.023
					c0.136-0.543-2.444-7.467-2.444-7.467l2.987-10.589"/>
				<path style="fill:#FFFFFF;stroke:#263238;stroke-linecap:round;stroke-linejoin:round;stroke-miterlimit:10;" d="
					M144.756,250.25c0,0-7.331,3.937-8.01,4.751s0.407,2.036,1.493,3.394c1.086,1.358,6.924-2.851,7.874-4.073
					S146.928,247.671,144.756,250.25z"/>
				<polygon style="fill:#FFFFFF;stroke:#263238;stroke-linecap:round;stroke-linejoin:round;stroke-miterlimit:10;" points="
					178.423,254.187 176.658,258.124 178.423,262.604 184.125,257.717 				"/>
				<path style="fill:#FFFFFF;stroke:#263238;stroke-linecap:round;stroke-linejoin:round;stroke-miterlimit:10;" d="
					M182.36,244.141c0,0-4.208,8.553-3.801,9.231c0.407,0.679,5.837,5.294,6.788,4.344c0.95-0.95,4.616-7.331,4.751-9.775
					c0.136-2.444-1.086-7.738-1.086-7.738"/>
				<path style="fill:#FFFFFF;stroke:#263238;stroke-linecap:round;stroke-linejoin:round;stroke-miterlimit:10;" d="
					M178.423,250.386c0,0-1.901,2.715-1.493,3.53c0.407,0.815,6.109,6.516,7.059,6.516c0.95,0,2.851-1.493,1.901-3.801
					C184.94,254.323,180.46,249.707,178.423,250.386z"/>
				<g>
					<path style="fill:#C6FF00;stroke:#263238;stroke-linecap:round;stroke-linejoin:round;stroke-miterlimit:10;" d="
						M155.616,200.427c0,0-5.837,0.271-9.096,6.381c-3.258,6.109,0.543,17.241,12.897,20.363
						c12.354,3.122,18.734-8.553,18.734-14.798s-7.874-11.539-10.453-12.218C165.119,199.477,155.616,200.427,155.616,200.427z"/>
					<path style="fill:none;stroke:#263238;stroke-linecap:round;stroke-linejoin:round;stroke-miterlimit:10;" d="M154.53,200.835
						c0,0-4.48,3.258-4.616,7.874c-0.136,4.616,2.851,9.096,7.059,10.861"/>
					<path style="fill:none;stroke:#263238;stroke-linecap:round;stroke-linejoin:round;stroke-miterlimit:10;" d="M171.5,202.056
						c0,0,2.036,4.208,0.271,8.281c-1.765,4.073-4.751,5.566-5.973,5.566"/>
					<path style="fill:none;stroke:#263238;stroke-linecap:round;stroke-linejoin:round;stroke-miterlimit:10;" d="M154.666,222.284
						c0,0,5.295,2.851,12.082,0.136c6.788-2.715,11.132-6.924,10.589-13.304"/>
				</g>
				<g>
					<path style="fill:#FFFFFF;stroke:#263238;stroke-linecap:round;stroke-linejoin:round;stroke-miterlimit:10;" d="
						M154.774,196.81c0,0-0.244,9.59,0.164,10.812c0.407,1.222,0.543,4.208,6.245,5.023c5.702,0.814,6.924-3.258,6.924-5.294
						c0-2.036-0.449-10.541-0.449-10.541H154.774z"/>
					<path style="fill:#FFFFFF;stroke:#263238;stroke-linecap:round;stroke-linejoin:round;stroke-miterlimit:10;" d="
						M167.656,196.81c0,1.408-2.884,2.55-6.441,2.55c-3.558,0-6.441-1.141-6.441-2.55c0-1.408,2.884-2.55,6.441-2.55
						C164.772,194.26,167.656,195.402,167.656,196.81z"/>
				</g>
				<path style="fill:none;stroke:#FFFFFF;stroke-linecap:round;stroke-linejoin:round;stroke-miterlimit:10;" d="M163.218,323.016
					c0,0-3.53-17.105-3.665-22.128c-0.136-5.023-1.086-23.622,4.616-32.717"/>
				<g>
					<path style="fill:#FFFFFF;stroke:#263238;stroke-linecap:round;stroke-linejoin:round;stroke-miterlimit:10;" d="
						M164.848,327.767c0,0,2.851,10.725,4.48,19.413c1.629,8.688,3.937,18.599,4.344,20.771c0.407,2.172,2.172,3.123,3.665,3.123
						c1.493,0,3.258-0.95,3.258-3.53c0-2.579-5.023-8.145-5.838-12.354c-0.815-4.208,1.629-17.92,2.172-24.844
						c0.079-1.005,0.101-2.037,0.089-3.083C169.28,329.479,164.848,327.767,164.848,327.767z"/>
					<path style="fill:#FFFFFF;stroke:#263238;stroke-linecap:round;stroke-linejoin:round;stroke-miterlimit:10;" d="
						M153.869,326.962c0.77,3.46,2.265,10.804,3.241,15.467c1.222,5.838,1.222,14.797,0.271,17.105
						c-0.95,2.308-6.245,6.245-6.788,6.924c-0.543,0.679,0.815,1.086,3.53,0.815c2.715-0.272,5.294-2.579,6.924-3.258
						c1.629-0.679,2.715-2.172,2.715-4.344c0-2.172-1.086-4.073,0-11.132c1.086-7.059,1.086-20.771,1.086-20.771
						C161.452,328.091,157.411,327.618,153.869,326.962z"/>
				</g>
				<path style="fill:#FFFFFF;stroke:#263238;stroke-linecap:round;stroke-linejoin:round;stroke-miterlimit:10;" d="
					M152.494,323.83c0,0,1.358,1.358,4.751,1.086c3.394-0.272,6.516-1.493,6.516-1.493l1.086,4.344c0,0-0.782,2.321-4.312,2.457
					c-3.53,0.136-6.006,0.394-7.092-1.642C152.358,326.546,152.494,323.83,152.494,323.83z"/>
				<path style="fill:#FFFFFF;stroke:#263238;stroke-linecap:round;stroke-linejoin:round;stroke-miterlimit:10;" d="
					M163.354,323.966c0,0,0.679,6.788,1.765,7.331c1.086,0.543,4.605,1.381,7.32,1.109c2.715-0.272,5.306-2.195,5.577-3.553
					c0.272-1.358,0.407-6.245-0.543-6.245c-0.95,0-1.901,1.901-6.788,1.901C165.798,324.509,164.305,322.609,163.354,323.966z"/>
			</g>
			
				<rect x="100.113" y="372.454" style="clip-path:url(#XMLID_00000098922222196707572170000008206391766131344280_);fill:#263238;stroke:#FFFFFF;stroke-linecap:round;stroke-linejoin:round;stroke-miterlimit:10;" width="205.162" height="14.696"/>
			<polygon style="opacity:0.3;clip-path:url(#XMLID_00000098922222196707572170000008206391766131344280_);fill:#FFFFFF;" points="
				103.571,371.903 103.571,385.707 295.478,168.732 283.002,168.732 			"/>
			<polygon style="opacity:0.3;clip-path:url(#XMLID_00000098922222196707572170000008206391766131344280_);fill:#FFFFFF;" points="
				216.76,394.641 359.736,232.99 348.786,231.261 204.496,394.641 			"/>
			<polygon style="opacity:0.3;clip-path:url(#XMLID_00000098922222196707572170000008206391766131344280_);fill:#FFFFFF;" points="
				103.571,330.793 103.571,344.658 259.171,168.732 246.695,168.732 			"/>
			
				<use xlink:href="#XMLID_1_"  style="overflow:visible;fill:none;stroke:#263238;stroke-linecap:round;stroke-linejoin:round;stroke-miterlimit:10;"/>
		</g>
		
			<rect x="304.123" y="158.359" style="fill:#263238;stroke:#263238;stroke-linecap:round;stroke-linejoin:round;stroke-miterlimit:10;" width="108.92" height="234.516"/>
		<g>
			<defs>
				<rect id="XMLID_4_" x="327.175" y="171.037" width="74.342" height="205.162"/>
			</defs>
			<clipPath id="XMLID_00000019645141141770353260000011135409908037919637_">
				<use xlink:href="#XMLID_4_"  style="overflow:visible;"/>
			</clipPath>
			
				<rect x="327.175" y="171.037" style="clip-path:url(#XMLID_00000019645141141770353260000011135409908037919637_);fill:#263238;" width="74.342" height="205.162"/>
			
				<rect x="327.175" y="171.037" style="opacity:0.6;clip-path:url(#XMLID_00000019645141141770353260000011135409908037919637_);fill:#FFFFFF;" width="74.342" height="205.162"/>
			<polygon style="opacity:0.3;clip-path:url(#XMLID_00000019645141141770353260000011135409908037919637_);fill:#FFFFFF;" points="
				318.53,276.847 318.53,290.792 410.162,187.191 410.162,173.092 			"/>
			<polygon style="opacity:0.3;clip-path:url(#XMLID_00000019645141141770353260000011135409908037919637_);fill:#FFFFFF;" points="
				318.53,302.78 318.53,316.726 410.162,213.125 410.162,199.025 			"/>
			<polygon style="opacity:0.3;clip-path:url(#XMLID_00000019645141141770353260000011135409908037919637_);fill:#FFFFFF;" points="
				318.53,399.029 318.53,412.923 410.162,309.322 410.162,295.274 			"/>
			
				<use xlink:href="#XMLID_4_"  style="overflow:visible;fill:none;stroke:#263238;stroke-linecap:round;stroke-linejoin:round;stroke-miterlimit:10;"/>
		</g>
		<g>
			
				<rect x="300.377" y="158.359" style="fill:#FFFFFF;stroke:#263238;stroke-linecap:round;stroke-linejoin:round;stroke-miterlimit:10;" width="20.17" height="213.807"/>
			
				<rect x="298.216" y="351.419" style="fill:#263238;stroke:#263238;stroke-linecap:round;stroke-linejoin:round;stroke-miterlimit:10;" width="24.493" height="17.865"/>
			
				<rect x="296.055" y="364.097" style="fill:#FFFFFF;stroke:#263238;stroke-linecap:round;stroke-linejoin:round;stroke-miterlimit:10;" width="28.815" height="28.815"/>
		</g>
		<g>
			
				<rect x="89.477" y="158.359" style="fill:#FFFFFF;stroke:#263238;stroke-linecap:round;stroke-linejoin:round;stroke-miterlimit:10;" width="20.17" height="213.807"/>
			
				<rect x="87.315" y="351.419" style="fill:#263238;stroke:#263238;stroke-linecap:round;stroke-linejoin:round;stroke-miterlimit:10;" width="24.493" height="17.865"/>
			
				<rect x="85.154" y="364.097" style="fill:#FFFFFF;stroke:#263238;stroke-linecap:round;stroke-linejoin:round;stroke-miterlimit:10;" width="28.815" height="28.815"/>
		</g>
		<g>
			
				<rect x="411.598" y="158.359" style="fill:#FFFFFF;stroke:#263238;stroke-linecap:round;stroke-linejoin:round;stroke-miterlimit:10;" width="20.17" height="213.807"/>
			
				<rect x="83" y="140" style="fill:#263238;stroke:#263238;stroke-linecap:round;stroke-linejoin:round;stroke-miterlimit:10;" width="354" height="22"/>
			
				<rect x="409.437" y="351.419" style="fill:#263238;stroke:#263238;stroke-linecap:round;stroke-linejoin:round;stroke-miterlimit:10;" width="24.493" height="17.865"/>
			
				<rect x="407.276" y="364.097" style="fill:#FFFFFF;stroke:#263238;stroke-linecap:round;stroke-linejoin:round;stroke-miterlimit:10;" width="28.815" height="28.815"/>
		</g>
		
			<line style="fill:none;stroke:#263238;stroke-linecap:round;stroke-linejoin:round;stroke-miterlimit:10;" x1="66.126" y1="392.875" x2="443.016" y2="392.875"/>
	</g>
</g>
<g id="Character_2">
	<g>
		<g>
			<path style="fill:#FFFFFF;stroke:#263238;stroke-linecap:round;stroke-linejoin:round;stroke-miterlimit:10;" d="M321.052,393.14
				c0,0-3.489,2.037-7.485,3.282c-3.996,1.245-6.063,2.273-3.779,3.174c2.284,0.901,7.611,1.069,9.536,0.69
				c1.924-0.379,8.422,1.207,9.674-0.12c1.252-1.327-0.031-6.612-0.031-6.612S322.682,393.738,321.052,393.14z"/>
			<path style="fill:#FFFFFF;stroke:#263238;stroke-linecap:round;stroke-linejoin:round;stroke-miterlimit:10;" d="
				M328.998,400.167c0.142-0.15,0.247-0.357,0.329-0.595c-3.707,0.036-7.744-0.358-12.586-0.358c-3.41,0-6.068-0.594-7.504-1.005
				c-0.629,0.498-0.539,0.957,0.551,1.388c2.284,0.901,7.611,1.069,9.536,0.69C321.249,399.908,327.746,401.493,328.998,400.167z"/>
		</g>
		<path style="fill:#263238;stroke:#263238;stroke-linecap:round;stroke-linejoin:round;stroke-miterlimit:10;" d="M320.85,314.116
			c0,0-6.392,24.217-6.579,28.9s5.354,34.359,5.509,39.677c0.155,5.318,1.272,10.447,1.272,10.447s3.09,0.878,4.701,0.831
			c1.612-0.047,3.214-0.416,3.214-0.416s0.553-8.725,1.437-17.138c0.884-8.413-2.36-31.221-2.43-33.638
			c-0.07-2.417,8.37-28.307,8.774-31.061c0.404-2.754-3.515-4.414-6.738-4.32C326.786,307.492,320.85,314.116,320.85,314.116z"/>
		<path style="fill:#263238;stroke:#263238;stroke-linecap:round;stroke-linejoin:round;stroke-miterlimit:10;" d="M318.633,309.987
			c0,0,1.268,21.414,3.175,31.52s5.048,29.368,5.562,35.966c0.514,6.598,1.861,19.623,1.861,19.623s3.72,0.376,4.526,0.352
			c0.806-0.023,2.891-0.407,3.365-0.743c0.474-0.336,2.717-17.498,3.108-26.219c0.391-8.721-3.616-30.055-3.497-31.51
			c0.119-1.455,5.951-22.753,7.303-26.179c1.352-3.426,1.471-4.881,1.471-4.881s2.153-3.611-5.809-5.637
			c-7.962-2.026-16.447,0.156-18.973,2.004C318.198,306.129,318.633,309.987,318.633,309.987z"/>
		<path style="fill:#C6FF00;stroke:#263238;stroke-linecap:round;stroke-linejoin:round;stroke-miterlimit:10;" d="M329.267,243.067
			c0,0-9.023,11.391-10.508,15.789c-1.485,4.398-0.347,32.428-0.97,38.737c-0.623,6.308-1.384,13.427-1.384,13.427
			s3.412,0.868,6.327,1.267c2.915,0.399,5.664,0.642,5.664,0.642l3.419-4.454l0.306,4.991c0,0,4.683,0.186,9.797-1.414
			c5.115-1.6,9.248-3.656,9.248-3.656l-6.57-26.26c0,0,3.432-15.099,5.009-27.403c1.578-12.303-3.615-18.926-5.586-20.159
			c-1.971-1.233-6.915,0.685-9.893,3.675C331.149,241.238,329.267,243.067,329.267,243.067z"/>
		<path style="fill:#FFFFFF;stroke:#263238;stroke-linecap:round;stroke-linejoin:round;stroke-miterlimit:10;" d="M323.528,212.106
			c0,0-1.76,6.019-3.007,7.507c-1.247,1.488-3.788,2.852-3.129,3.317c0.659,0.465,2.635,1.859,2.635,1.859
			s0.134,10.157,1.262,10.124c1.128-0.033,7.058-1.334,7.058-1.334l0.704,7.56l10.268-7.395l-0.965-5.456
			c0,0,6.922-6.008,6.611-11.16s-4.163-10.04-10.49-11.307C328.147,204.553,324.273,209.988,323.528,212.106z"/>
		<path style="fill:#263238;stroke:#263238;stroke-linecap:round;stroke-linejoin:round;stroke-miterlimit:10;" d="M328.486,210.671
			c0,0-3.409,4.777-1.774,5.535c1.635,0.759,2.275,0.579,2.455,1.219c0.18,0.64-2.015,2.8-0.551,3.242
			c1.464,0.441,2.366-1.843,3.143-2.833c0.778-0.99,3.26,1.195,3.34,3.935c0.08,2.74,0.335,5.958,3.889,6.177
			c3.555,0.219,8.596-9.443,9.493-11.889c0.897-2.445-3.693-10.537-8.447-13.141c-4.753-2.604-8.693,0.575-8.693,0.575
			s1.21-2.777-1.677-2.209s-4.073,4.151-4.073,4.151s-2.032-3.328-5.152,0.311c-3.12,3.639-1.443,5.848,0.505,6.275
			C322.893,212.447,328.486,210.671,328.486,210.671z"/>
		<path style="fill:#FFFFFF;stroke:#263238;stroke-linecap:round;stroke-linejoin:round;stroke-miterlimit:10;" d="M330.075,220.947
			c0,0,1.167-4.227,3.764-3.658c2.597,0.57,1.642,6.565-0.249,8.072c-1.892,1.507-3.104-1.361-3.104-1.361"/>
		<path style="fill:#C6FF00;stroke:#263238;stroke-linecap:round;stroke-linejoin:round;stroke-miterlimit:10;" d="M340.035,230.658
			c0,0-11.231,7.585-12.307,9.39c-1.076,1.805-1.277,6.005-1.277,6.005s10.71-8.86,13.407-10.39c2.697-1.53,3.333-1.871,3.333-1.871
			S341.476,230.293,340.035,230.658z"/>
		<path style="fill:#C6FF00;stroke:#263238;stroke-linecap:round;stroke-linejoin:round;stroke-miterlimit:10;" d="M331.739,250.414
			c0,0,2.204,14.774,2.629,18.31c0.425,3.536,0.804,5.46,0.804,5.46s-3.184,12.512-5.783,17.426
			c-2.599,4.914-6.839,14.392-6.977,15.202c-0.138,0.81-0.359,9.849-0.326,10.977c0.033,1.128,2.464,1.541,3.431,1.513
			s2.602,0.731,3.232,0.229c0.63-0.502,2.209-1.677,1.228-2.132c-0.981-0.455-1.625-0.437-1.625-0.437s0.049-3.872-0.482-5.47
			c-0.53-1.598-1.582-4.47-1.582-4.47s14.287-18.963,16.297-21.925c2.01-2.962,2.906-16.536,2.992-19.119
			c0.077-2.307,0.426-13.076,0.299-17.428"/>
		<path style="fill:#FFFFFF;stroke:#263238;stroke-linecap:round;stroke-linejoin:round;stroke-miterlimit:10;" d="M333.736,264.079
			c0.285,2.008,0.52,3.716,0.632,4.645c0.426,3.536,0.804,5.46,0.804,5.46s-3.184,12.512-5.783,17.426
			c-2.599,4.914-6.839,14.392-6.977,15.202c-0.138,0.81-0.359,9.849-0.326,10.977s2.464,1.541,3.431,1.513
			c0.967-0.028,2.602,0.731,3.232,0.229c0.63-0.502,2.209-1.677,1.228-2.132c-0.981-0.455-1.625-0.437-1.625-0.437
			s0.049-3.872-0.482-5.47c-0.53-1.597-1.582-4.47-1.582-4.47s14.287-18.963,16.297-21.925c2.01-2.962,2.906-16.536,2.992-19.119
			c0.023-0.694,0.071-2.156,0.123-3.975C340.441,259.252,336.032,262.01,333.736,264.079z"/>
		
			<line style="fill:none;stroke:#263238;stroke-linecap:round;stroke-linejoin:round;stroke-miterlimit:10;" x1="328.34" y1="317.055" x2="335.563" y2="332.489"/>
		<polygon style="fill:#FFFFFF;stroke:#263238;stroke-linecap:round;stroke-linejoin:round;stroke-miterlimit:10;" points="
			318.805,327.493 335.563,332.489 333.022,361.595 313.403,352.488 		"/>
		<polygon style="fill:#FFFFFF;stroke:#263238;stroke-linecap:round;stroke-linejoin:round;stroke-miterlimit:10;" points="
			335.563,332.489 340.033,358.649 333.022,361.595 		"/>
		<g>
			<polygon style="fill:#C6FF00;stroke:#263238;stroke-linecap:round;stroke-linejoin:round;stroke-miterlimit:10;" points="
				314.88,325.753 330.924,332.708 324.937,361.304 306.541,349.927 			"/>
			<polygon style="fill:#C6FF00;stroke:#263238;stroke-linecap:round;stroke-linejoin:round;stroke-miterlimit:10;" points="
				330.924,332.708 332.249,359.214 324.937,361.304 			"/>
		</g>
		<polyline style="fill:none;stroke:#263238;stroke-linecap:round;stroke-linejoin:round;stroke-miterlimit:10;" points="
			314.88,325.753 323.081,318.911 322.056,328.366 		"/>
		
			<line style="fill:none;stroke:#263238;stroke-linecap:round;stroke-linejoin:round;stroke-miterlimit:10;" x1="330.924" y1="332.708" x2="328.624" y2="317.605"/>
		<g>
			<path style="fill:#FFFFFF;stroke:#263238;stroke-linecap:round;stroke-linejoin:round;stroke-miterlimit:10;" d="
				M329.231,397.095c0,0-6.775,5.519-9.316,6.884s-5.395,3.06-4.565,3.842s12.261,0.127,14.982-0.597
				c2.721-0.724,5.778-0.974,6.352-3.41c0.574-2.436,0.438-7.109,0.438-7.109S331.359,398.163,329.231,397.095z"/>
			<path style="fill:#FFFFFF;stroke:#263238;stroke-linecap:round;stroke-linejoin:round;stroke-miterlimit:10;" d="M327.047,406.51
				c-5.945,0.64-9.784,0.198-11.14-0.017c-0.615,0.538-0.895,1.01-0.557,1.329c0.829,0.782,12.261,0.127,14.982-0.597
				c2.721-0.724,5.778-0.974,6.352-3.41c0.036-0.153,0.069-0.315,0.1-0.484C334.162,404.695,330.69,406.117,327.047,406.51z"/>
		</g>
	</g>
</g>
<g id="Character_1">
	<g>
		<path style="fill:#FFFFFF;stroke:#263238;stroke-linecap:round;stroke-linejoin:round;stroke-miterlimit:10;" d="M238.793,254.408
			c0,0-3.171,1.866-3.769,3.497c-0.598,1.63-0.219,3.555,0.577,3.209c0.796-0.346,0.92-1.64,0.92-1.64l0.939-0.995
			c0,0-0.574,2.436,0.383,2.086c0.958-0.351,1.399-1.815,1.399-1.815s3.674-1.236,3.641-2.364
			C242.85,255.258,240.874,253.864,238.793,254.408z"/>
		<g>
			<path style="fill:#FFFFFF;stroke:#263238;stroke-linecap:round;stroke-linejoin:round;stroke-miterlimit:10;" d="
				M278.837,228.244c0,0-1.618,5.37-3.349,6.871c-1.73,1.502-1.242,1.649,0.397,2.569c0,0,0.647,5.626,1.031,7.712
				c0.383,2.086,1.359,2.38,2.497,2.669c1.137,0.29,5.57-2.581,5.57-2.581s5.607-1.292,8.87-5.58
				c3.262-4.288,1.578-12.303-1.758-16.077C288.76,220.053,280.925,222.377,278.837,228.244z"/>
			<path style="fill:#FFFFFF;stroke:#263238;stroke-linecap:round;stroke-linejoin:round;stroke-miterlimit:10;" d="M285.933,255.94
				c0,0-11.129,0.001-14.679-0.057c-3.55-0.058-8.422-1.207-13.588-1.379c-5.166-0.172-9.375-0.695-14.062-1.043
				c-4.687-0.347-10.981-0.487-10.802,0.153c0.18,0.64,1.63,0.598,3.246,0.712c1.616,0.114,5.208,1.623,5.208,1.623l0.023,0.806
				c0,0-0.607,1.308-2.039,1.995c-1.432,0.687-2.209,1.677-1.399,1.815c0.81,0.138,3.517-1.07,4.958-1.435
				c1.441-0.365,4.12-2.539,4.12-2.539s13.525,4.768,16.431,4.844c2.905,0.077,6.455,0.135,9.692,0.525
				c3.237,0.39,6.313,0.784,6.313,0.784L285.933,255.94z"/>
			<path style="fill:#FFFFFF;stroke:#263238;stroke-linecap:round;stroke-linejoin:round;stroke-miterlimit:10;" d="
				M285.274,361.505c0,0-2.93,23.01-3.907,28.532c-0.976,5.523-3.116,10.132-3.851,10.911c-0.735,0.779-6.916,3.232-9.544,4.067
				c-2.628,0.834-5.251,1.858-3.141,2.744s4.955,0.993,7.989,1.094c3.034,0.101,6.263,0.386,8.345,0.326
				c2.082-0.061,2.768-2.543,2.724-4.058c-0.044-1.514,1.088-8.178,2.671-12.392c1.583-4.214,5.755-10.587,7.293-16.316
				c1.538-5.729,0.736-20.293,0.714-21.05S290.178,347.722,285.274,361.505z"/>
			<path style="fill:#FFFFFF;stroke:#263238;stroke-linecap:round;stroke-linejoin:round;stroke-miterlimit:10;" d="
				M294.593,254.237c0,0-4.73-1.798-9.503,0.438c-4.773,2.235-12.82,13.921-12.745,16.499c0.075,2.578,2.254,5.418,2.799,7.499
				c0.544,2.081,0.859,24.007,1.031,35.453c0.172,11.446,4.522,27.932,5.69,34.833c1.168,6.901,7.189,30.919,8.178,37.18
				c0.989,6.261,1.938,16.717,1.833,18.656c-0.105,1.938-2.926,4.762-6.259,6.633c-3.332,1.871-7.504,2.638-6.812,4.23
				c0.691,1.593,7.317,2.045,9.868,1.003s10.229-3.201,10.855-3.864c0.626-0.663-0.316-5.313-0.86-7.394
				c-0.544-2.081-1.823-18.333-0.969-22.229c0.854-3.896,0.346-15.816-0.586-20.144s-2.461-12.509-2.461-12.509
				s1.875-7.635,3.824-12.691c1.95-5.057,7.549-12.155,7.296-20.857c-0.253-8.702-3.437-12.803-6.156-17.562
				c-2.719-4.759-4.072-12.462-2.316-18.642c1.756-6.18,8.266-15.24,5.87-20.009C300.773,255.992,294.593,254.237,294.593,254.237z"
				/>
			<path style="fill:#C6FF00;stroke:#263238;stroke-linecap:round;stroke-linejoin:round;stroke-miterlimit:10;" d="
				M276.174,314.125c0.172,11.446,4.522,27.932,5.69,34.833c0.234,1.381,0.664,3.454,1.207,5.926
				c2.605,1.262,7.362,2.549,12.161-1.293c-0.344-1.8-0.581-3.069-0.581-3.069s1.875-7.635,3.824-12.691
				c1.95-5.057,7.549-12.155,7.296-20.857c-0.253-8.702-3.437-12.803-6.156-17.562c-2.719-4.759-4.072-12.462-2.316-18.642
				c1.756-6.18,8.266-15.24,5.87-20.009c-2.397-4.769-8.577-6.525-8.577-6.525s-4.73-1.798-9.503,0.438
				c-4.773,2.235-12.82,13.921-12.745,16.499c0.075,2.578,2.254,5.418,2.799,7.499C275.687,280.753,276.003,302.679,276.174,314.125
				z"/>
			<g>
				<path style="fill:#263238;stroke:#263238;stroke-linecap:round;stroke-linejoin:round;stroke-miterlimit:10;" d="
					M273.526,223.076c0,0,1.895,4.138,3.462,8.125c1.568,3.987,4.999,5.5,4.343,10.68c-0.656,5.18-1.372,8.266,1.48,12.053
					c2.852,3.788,8.226,5.567,8.495,9.269c0.269,3.702-3.339,7.194-0.629,11.631c2.71,4.437,9.032,5.544,16.755-0.649
					c7.723-6.192-5.057-29.691-5.628-38.222c-0.571-8.532-0.436-14.987-7.947-18.155S272.428,218.592,273.526,223.076z"/>
				<g>
					
						<path style="fill:none;stroke:#FFFFFF;stroke-width:0.5;stroke-linecap:round;stroke-linejoin:round;stroke-miterlimit:10;" d="
						M278.221,221.053c0,0-1.015,11.368,5.887,18.067c6.902,6.699,15.428,12.992,15.834,20.097
						c0.406,7.105-2.436,12.586-5.684,13.195"/>
					
						<path style="fill:none;stroke:#FFFFFF;stroke-width:0.5;stroke-linecap:round;stroke-linejoin:round;stroke-miterlimit:10;" d="
						M285.086,221.862c-0.337,3.731-0.143,9.682,3.081,15.634c5.278,9.744,17.682,10.406,18.473,23.548"/>
					
						<path style="fill:none;stroke:#FFFFFF;stroke-width:0.5;stroke-linecap:round;stroke-linejoin:round;stroke-miterlimit:10;" d="
						M285.732,218.008c0,0-0.178,0.609-0.362,1.675"/>
				</g>
			</g>
			<g>
				<g>
					<path style="fill:#FFFFFF;stroke:#263238;stroke-linecap:round;stroke-linejoin:round;stroke-miterlimit:10;" d="
						M287.332,254.125l13.402,10.821l-1.244,2.737l-13.439-12.692C286.05,254.992,285.129,254.254,287.332,254.125z"/>
					<polygon style="fill:#FFFFFF;stroke:#263238;stroke-linecap:round;stroke-linejoin:round;stroke-miterlimit:10;" points="
						283.562,277.639 292.023,287.594 291.028,289.585 					"/>
				</g>
				<path style="fill:#FFFFFF;stroke:#263238;stroke-linecap:round;stroke-linejoin:round;stroke-miterlimit:10;" d="M299.05,263.3
					c0,0-4.133,13.184-6.253,17.923c-2.12,4.739-4.416,8.999,0.352,12.086c4.767,3.087,9.882,1.487,13.655-1.849
					c3.774-3.336,6.362-19.701,4.928-24.659C310.297,261.844,302.375,255.623,299.05,263.3z"/>
				<path style="fill:#FFFFFF;stroke:#263238;stroke-linecap:round;stroke-linejoin:round;stroke-miterlimit:10;" d="
					M310.865,264.731c0,0-4.872-1.149-7.191,2.306c-2.319,3.454-7.248,16.984-7.941,20.875c-0.693,3.891,0.363,6.925,3.747,6.826"/>
				<path style="fill:#FFFFFF;stroke:#263238;stroke-linecap:round;stroke-linejoin:round;stroke-miterlimit:10;" d="
					M308.354,261.578c0,0-3.275-1.679-5.598,1.614c-2.323,3.293-5.174,10.634-5.473,11.449c-0.299,0.815,0.848,1.427,1.464,0.441
					c0.617-0.986,3.098-9.928,5.947-11.785s5.986,0.632,5.986,0.632S309.335,262.033,308.354,261.578z"/>
			</g>
			<path style="fill:#263238;stroke:#263238;stroke-linecap:round;stroke-linejoin:round;stroke-miterlimit:10;" d="
				M283.968,403.935c-2.273,0.926-5.708,2.158-8.958,2.012c-3.321-0.149-4.43-1.077-4.803-1.713
				c-0.856,0.317-1.639,0.592-2.234,0.781c-2.628,0.834-5.251,1.858-3.141,2.744s4.955,0.993,7.989,1.094
				c3.034,0.101,6.263,0.386,8.345,0.326c2.082-0.061,2.768-2.543,2.724-4.058C283.883,404.864,283.912,404.45,283.968,403.935z"/>
			<path style="fill:#263238;stroke:#263238;stroke-linecap:round;stroke-linejoin:round;stroke-miterlimit:10;" d="
				M288.672,416.662c2.55-1.042,10.229-3.201,10.855-3.864c0.347-0.368,0.211-1.966-0.072-3.67
				c-3.522,2.206-8.806,4.132-11.727,4.217c-2.778,0.081-3.469-0.656-3.623-1.157c-2.946,1.353-5.89,2.112-5.301,3.47
				C279.496,417.251,286.122,417.703,288.672,416.662z"/>
			<path style="fill:#FFFFFF;stroke:#263238;stroke-linecap:round;stroke-linejoin:round;stroke-miterlimit:10;" d="
				M291.277,262.236c0,0-0.339-6.119-3.945-8.111c-3.606-1.992-8.424,4.277-7.9,11.197c0.524,6.92,0.033,28.869-0.394,30.817
				c-0.427,1.948-2.989,8.151-7.556,17.477c-4.567,9.326-4.217,10.284-4.625,12.876c-0.183,1.159-1.013,9.545-0.975,10.834
				c0.038,1.289,2.317,2.029,3.933,2.144c1.616,0.114,2.702-1.369,2.683-2.013c-0.019-0.645-1.464-0.441-1.464-0.441
				s0.289-1.137,0.215-3.716c-0.075-2.578-1.311-6.252-1.348-7.541c-0.037-1.289,15.776-23.2,16.65-26.451
				c0.873-3.251,0.809-10.991,1.108-11.806c0.299-0.815,1.92-17.152,2.376-18.133C290.488,268.388,290.864,264.667,291.277,262.236z
				"/>
			
				<line style="fill:#FFFFFF;stroke:#263238;stroke-linecap:round;stroke-linejoin:round;stroke-miterlimit:10;" x1="271.034" y1="337.016" x2="274.674" y2="351.264"/>
			
				<line style="fill:#FFFFFF;stroke:#263238;stroke-linecap:round;stroke-linejoin:round;stroke-miterlimit:10;" x1="266.402" y1="338.602" x2="264.75" y2="348.327"/>
			<g>
				<polygon style="fill:#FFFFFF;stroke:#263238;stroke-linecap:round;stroke-linejoin:round;stroke-miterlimit:10;" points="
					278.257,352.451 282.727,378.61 275.716,381.556 				"/>
				<polygon style="fill:#FFFFFF;stroke:#263238;stroke-linecap:round;stroke-linejoin:round;stroke-miterlimit:10;" points="
					261.499,347.454 278.257,352.451 275.716,381.556 256.097,372.449 				"/>
			</g>
		</g>
	</g>
</g>
</svg>
